<?xml version="1.0" encoding="utf-8"?>
<!-- Generator: Adobe Illustrator 27.3.1, SVG Export Plug-In . SVG Version: 6.00 Build 0)  -->
<svg version="1.1" id="Layer_1" xmlns="http://www.w3.org/2000/svg" xmlns:xlink="http://www.w3.org/1999/xlink" x="0px" y="0px"
	 viewBox="0 0 1920 1080" style="enable-background:new 0 0 1920 1080;" xml:space="preserve">
<style type="text/css">
	.st0{fill:#FFFFFF;}
</style>
<g>
	<path d="M1152,398.25c0,94.5,0,189,0,283.5c-0.24,0.83-0.54,1.64-0.7,2.48c-4.5,23.6-18.28,38.87-41.25,45.84
		c-2.71,0.82-5.53,1.29-8.3,1.93c-94.5,0-189,0-283.5,0c-0.7-0.22-1.39-0.52-2.11-0.66c-23.81-4.36-39.18-18.2-46.23-41.3
		c-0.83-2.71-1.28-5.53-1.91-8.3c0-94.5,0-189,0-283.5c0.24-0.94,0.55-1.87,0.72-2.83c3.36-18.62,13.31-32.61,30.16-41.11
		c5.99-3.02,12.89-4.26,19.37-6.31c94.5,0,189,0,283.5,0c0.7,0.22,1.39,0.52,2.11,0.65c23.83,4.34,39.16,18.2,46.21,41.29
		C1150.9,392.65,1151.37,395.48,1152,398.25z M783,539.62c0,44.87-0.03,89.75,0.01,134.62c0.02,24.83,17.96,42.74,42.84,42.75
		c89.5,0.03,178.99,0.03,268.49,0c24.64-0.01,42.64-17.95,42.65-42.56c0.04-89.62,0.04-179.24,0-268.86
		c-0.01-24.61-18.01-42.54-42.65-42.55c-89.62-0.03-179.24-0.03-268.86,0.04c-3.59,0-7.27,0.37-10.75,1.22
		c-19.2,4.68-31.69,20.9-31.71,41.11C782.97,450.13,783,494.87,783,539.62z"/>
	<path class="st0" d="M1101.75,732c2.77-0.63,5.59-1.1,8.3-1.93c22.96-6.97,36.75-22.23,41.25-45.84c0.16-0.84,0.46-1.66,0.7-2.48
		c0,16.75,0,33.5,0,50.25C1135.25,732,1118.5,732,1101.75,732z"/>
	<path class="st0" d="M768,681.75c0.63,2.77,1.08,5.59,1.91,8.3c7.05,23.1,22.42,36.93,46.23,41.3c0.72,0.13,1.4,0.43,2.11,0.66
		c-16.69,0-33.38,0-50.25,0C768,715.25,768,698.5,768,681.75z"/>
	<path class="st0" d="M818.25,348c-6.48,2.05-13.38,3.29-19.37,6.31c-16.85,8.5-26.8,22.49-30.16,41.11
		c-0.17,0.95-0.48,1.88-0.72,2.83c0-16.69,0-33.38,0-50.25C784.75,348,801.5,348,818.25,348z"/>
	<path class="st0" d="M1152,398.25c-0.63-2.77-1.1-5.6-1.93-8.31c-7.05-23.09-22.38-36.95-46.21-41.29
		c-0.72-0.13-1.41-0.43-2.11-0.65c16.75,0,33.5,0,50.25,0C1152,364.75,1152,381.5,1152,398.25z"/>
	<path class="st0" d="M783,539.62c0-44.75-0.03-89.5,0.01-134.24c0.02-20.21,12.51-36.43,31.71-41.11
		c3.48-0.85,7.16-1.21,10.75-1.22c89.62-0.06,179.24-0.07,268.86-0.04c24.64,0.01,42.64,17.94,42.65,42.55
		c0.04,89.62,0.04,179.24,0,268.86c-0.01,24.61-18,42.55-42.65,42.56c-89.5,0.03-178.99,0.03-268.49,0
		c-24.88-0.01-42.82-17.92-42.84-42.75C782.97,629.37,783,584.49,783,539.62z M987.8,522.25c-11.02,0-20.88-0.07-30.74,0.02
		c-14.53,0.13-28.91,1.46-42.91,5.75c-28.86,8.86-43.88,29.18-42.53,58.39c0.97,20.93,9.48,37.76,28.88,47.37
		c15.51,7.68,32.12,9.17,48.95,5.49c16.05-3.51,27.24-14.02,36.29-27.15c0.72-1.04,1.47-2.06,1.89-2.65
		c2.38,8.14,4.77,16.26,7.13,24.38c0.71,2.43,1.97,3.5,4.79,3.47c15.12-0.17,30.24-0.07,45.36-0.09c1.04,0,2.09-0.18,3.32-0.3
		c-1.24-3.97-2.43-7.51-3.45-11.09c-3.8-13.33-4.92-26.98-4.94-40.77c-0.04-27.74,0.36-55.49-0.35-83.22
		c-0.68-26.63-14.2-45.33-38.66-55.52c-22.98-9.58-46.78-9.48-70.57-3.3c-17.61,4.57-32.28,13.9-42.53,29.26
		c-5.56,8.33-7.92,17.6-7.06,27.85c17.06,0,33.83,0,50.57,0c1.57-13.28,7.45-20.41,19.27-22.06c5.58-0.78,11.52-0.53,17.08,0.45
		c10.11,1.78,16.65,8.39,18.43,18.32C987.47,504.98,987.24,513.41,987.8,522.25z"/>
	<path d="M987.8,522.25c-0.56-8.84-0.33-17.27-1.79-25.39c-1.79-9.93-8.33-16.55-18.43-18.32c-5.56-0.98-11.5-1.22-17.08-0.45
		c-11.82,1.65-17.7,8.78-19.27,22.06c-16.74,0-33.51,0-50.57,0c-0.86-10.24,1.5-19.52,7.06-27.85
		c10.26-15.37,24.93-24.69,42.53-29.26c23.79-6.18,47.59-6.28,70.57,3.3c24.46,10.19,37.98,28.9,38.66,55.52
		c0.71,27.72,0.31,55.48,0.35,83.22c0.02,13.79,1.15,27.44,4.94,40.77c1.02,3.58,2.21,7.12,3.45,11.09c-1.23,0.12-2.27,0.3-3.32,0.3
		c-15.12,0.02-30.24-0.08-45.36,0.09c-2.82,0.03-4.08-1.04-4.79-3.47c-2.36-8.12-4.75-16.24-7.13-24.38
		c-0.42,0.59-1.18,1.61-1.89,2.65c-9.05,13.13-20.24,23.64-36.29,27.15c-16.82,3.68-33.44,2.19-48.95-5.49
		c-19.4-9.61-27.92-26.43-28.88-47.37c-1.35-29.22,13.67-49.53,42.53-58.39c14-4.3,28.37-5.62,42.91-5.75
		C966.92,522.18,976.78,522.25,987.8,522.25z M987.3,552.02c-10.63,0-20.84-0.06-31.05,0.04c-2.86,0.03-5.75,0.3-8.55,0.86
		c-11.15,2.22-19.11,8.34-22.53,19.47c-4.11,13.38,1.76,25.11,14.1,28.6c16.17,4.57,37.83-4,46.37-18.44
		c0.8-1.35,1.55-2.97,1.58-4.48C987.38,569.59,987.3,561.11,987.3,552.02z"/>
	<path class="st0" d="M987.3,552.02c0,9.08,0.08,17.57-0.07,26.05c-0.03,1.51-0.78,3.14-1.58,4.48
		c-8.54,14.43-30.2,23.01-46.37,18.44c-12.34-3.49-18.21-15.22-14.1-28.6c3.42-11.12,11.38-17.24,22.53-19.47
		c2.8-0.56,5.69-0.83,8.55-0.86C966.46,551.96,976.67,552.02,987.3,552.02z"/>
</g>
</svg>
